<svg t="1709625861348" class="icon" viewBox="0 0 1024 1024" version="1.1" xmlns="http://www.w3.org/2000/svg" p-id="5397" width="16" height="16"><path d="M976.666667 921.386667l-77.333334-618.666667a53.42 53.42 0 0 0-52.913333-46.72H725.333333v-64A149.48 149.48 0 0 0 511.94 57.02 149.333333 149.333333 0 0 0 298.666667 192v64H177.58A53.413333 53.413333 0 0 0 124.666667 302.72l-77.333334 618.666667a53.333333 53.333333 0 0 0 52.913334 59.946666h823.506666a53.333333 53.333333 0 0 0 52.92-59.946666zM682.666667 192v64H469.333333v-64c0-58.813333 47.853333-106.666667 106.666667-106.666667s106.666667 47.853333 106.666667 106.666667zM448 85.333333a107.333333 107.333333 0 0 1 21.333333 2.153334A148.346667 148.346667 0 0 0 426.666667 192v64H341.333333v-64c0-58.813333 47.853333-106.666667 106.666667-106.666667zM92.253333 935.06a10.54 10.54 0 0 1-2.586666-8.393333l77.333333-618.666667a10.666667 10.666667 0 0 1 10.58-9.333333H253.333333c-0.273333 1.333333-0.506667 2.666667-0.666666 4.053333l-77.333334 618.666667a53.206667 53.206667 0 0 0 0.666667 17.28H100.246667a10.546667 10.546667 0 0 1-7.993334-3.606667z m839.493334 0a10.546667 10.546667 0 0 1-8 3.606667H228.246667a10.666667 10.666667 0 0 1-10.58-12l77.333333-618.666667a10.666667 10.666667 0 0 1 10.58-9.333333H426.666667v91.073333a42.666667 42.666667 0 1 0 42.666666 0V298.666667h213.333334v91.073333a42.666667 42.666667 0 1 0 42.666666 0V298.666667h121.086667a10.666667 10.666667 0 0 1 10.58 9.333333l77.333333 618.666667a10.54 10.54 0 0 1-2.586666 8.393333z" fill="#5C5C66" p-id="5398"></path></svg>