<svg t="1709531649190" class="icon" viewBox="0 0 1024 1024" version="1.1" xmlns="http://www.w3.org/2000/svg" p-id="32230" width="16" height="16"><path d="M261.12 481.194667C275.114667 409.429333 296.106667 348.586667 324.138667 298.666667c24.021333-41.685333 61.696-90.88 113.066666-147.626667H320.128a30.762667 30.762667 0 0 1-23.04-9.258667 32.384 32.384 0 0 1-8.96-23.594666c0-9.557333 2.986667-17.450667 8.96-23.594667A30.762667 30.762667 0 0 1 320.170667 85.333333h384.256c9.344 0 16.981333 3.072 23.04 9.216 5.973333 6.144 8.96 14.037333 8.96 23.594667 0 9.6-2.986667 17.493333-8.96 23.594667a30.762667 30.762667 0 0 1-23.04 9.216h-149.077334c14.677333 40.362667 41.002667 88.917333 79.018667 145.664 24.021333 34.858667 45.056 62.037333 63.061333 81.493333 18.005333 19.498667 32.682667 31.274667 44.032 35.413333 58.709333 2.730667 108.373333 23.722667 149.077334 63.061334 40.661333 39.296 63.701333 89.045333 69.034666 149.205333 3.328 60.842667-12.202667 113.834667-46.506666 158.976-34.389333 45.141333-80.554667 73.514667-138.624 85.12-58.026667 8.874667-110.72-2.048-158.08-32.853333-47.36-30.72-79.36-74.837333-96.042667-132.266667-14.72-58.794667-9.386667-113.834667 16-165.12 25.344-51.2 65.365333-88.149333 120.064-110.72-22.698667-23.936-47.36-55.722667-74.069333-95.36-39.338667-57.429333-67.712-108.373333-85.034667-152.789333C441.856 240.213333 402.688 290.517333 379.648 331.52c-22.997333 41.045333-40.832 91.306667-53.504 150.784 59.349333 11.605333 106.24 40.661333 140.586667 87.125333 34.346667 46.506667 49.194667 100.522667 44.544 162.048-7.338667 60.842667-32.213333 110.592-74.538667 149.248-42.368 38.613333-93.568 57.941333-153.6 57.941334-60.714667-2.730667-111.232-24.448-151.594667-65.109334-40.32-40.661333-62.848-91.776-67.498666-153.301333-1.365333-61.568 16.298667-114.730667 52.992-159.488s84.736-71.253333 144.085333-79.488v-0.085333z m27.008 391.722666c45.354667-1.365333 83.029333-17.408 113.066667-48.213333 29.994667-30.72 45.653333-69.376 47.018666-115.84-1.322667-46.506667-17.024-85.12-47.018666-115.882667-30.037333-30.762667-67.712-46.848-113.066667-48.213333-45.354667 1.365333-83.029333 17.450667-113.066667 48.213333-29.994667 30.72-45.653333 69.376-47.018666 115.882667 1.322667 46.506667 17.024 85.12 47.018666 115.882667 30.037333 30.72 67.712 46.805333 113.066667 48.213333z m448.256-65.621333c45.354667-1.365333 83.029333-17.450667 113.066667-48.213333 29.994667-30.72 45.653333-69.376 47.018666-115.882667-1.322667-46.506667-17.024-85.077333-47.018666-115.84-30.037333-30.762667-67.712-46.848-113.066667-48.213333-45.354667 1.365333-83.029333 17.450667-113.066667 48.213333-29.994667 30.72-45.653333 69.376-47.018666 115.84 1.322667 46.506667 17.024 85.12 47.018666 115.882667 30.037333 30.762667 67.712 46.848 113.066667 48.213333z" fill="#000000" fill-opacity=".65" p-id="32231"></path></svg>