<svg t="1709626009269" class="icon" viewBox="0 0 1024 1024" version="1.1" xmlns="http://www.w3.org/2000/svg" p-id="7509" width="16" height="16"><path d="M512 42.666667a469.333333 469.333333 0 1 0 469.333333 469.333333A469.333333 469.333333 0 0 0 512 42.666667z m0 896a426.666667 426.666667 0 1 1 426.666667-426.666667 426.666667 426.666667 0 0 1-426.666667 426.666667z" fill="#666666" p-id="7510"></path><path d="M533.333333 503.253333V277.333333a21.333333 21.333333 0 0 0-42.666666 0v234.666667a21.333333 21.333333 0 0 0 6.186666 15.146667l155.733334 155.52A21.333333 21.333333 0 0 0 682.666667 652.586667zM192 490.666667H149.333333a21.333333 21.333333 0 0 0 0 42.666666h42.666667a21.333333 21.333333 0 0 0 0-42.666666zM874.666667 490.666667h-42.666667a21.333333 21.333333 0 0 0 0 42.666666h42.666667a21.333333 21.333333 0 0 0 0-42.666666zM512 810.666667a21.333333 21.333333 0 0 0-21.333333 21.333333v42.666667a21.333333 21.333333 0 0 0 42.666666 0v-42.666667a21.333333 21.333333 0 0 0-21.333333-21.333333zM512 213.333333a21.333333 21.333333 0 0 0 21.333333-21.333333V149.333333a21.333333 21.333333 0 0 0-42.666666 0v42.666667a21.333333 21.333333 0 0 0 21.333333 21.333333z" fill="#666666" p-id="7511"></path></svg>