<svg t="1709528790852" class="icon" viewBox="0 0 1024 1024" version="1.1" xmlns="http://www.w3.org/2000/svg" p-id="13518" width="16" height="16"><path d="M349.2 327l38.4 152.6c1.1 4.2 1 8.6-0.1 12.7L284.8 865.7h454.4L636.7 492.3c-1.1-4.2-1.2-8.6-0.1-12.8L675.2 327l-60.6-61.3H409.8L349.2 327z m-11.7 158.4l-40.3-159.9c-2.1-8.5 0.3-17.5 6.5-23.7l77.8-78.8c4.7-4.8 11.1-7.4 17.8-7.4H625c6.7 0 13.1 2.7 17.8 7.4l77.9 78.8c6.2 6.2 8.6 15.2 6.5 23.7l-40.5 159.9L796.1 884c4.4 15.9-7.6 31.6-24.1 31.6H252c-16.5 0-28.5-15.7-24.1-31.6l109.6-398.6z" fill="#979797" p-id="13519"></path><path d="M403.7 133c0-13.8 11.2-25 25-25s25 11.2 25 25v101.6c0 13.8-11.2 25-25 25s-25-11.2-25-25V133zM570.3 133c0-13.8 11.2-25 25-25s25 11.2 25 25v101.6c0 13.8-11.2 25-25 25s-25-11.2-25-25V133zM369.8 526.7c-13.8 0-25-11.2-25-25s11.2-25 25-25h284.4c13.8 0 25 11.2 25 25s-11.2 25-25 25H369.8z" fill="#979797" p-id="13520"></path></svg>