<svg t="1709528837404" class="icon" viewBox="0 0 1024 1024" version="1.1" xmlns="http://www.w3.org/2000/svg" p-id="14765" width="16" height="16"><path d="M919.424 161.392a30.704 30.704 0 0 0-35.32 18.216c-5.864 4.144-27.592 11.704-64.712 11.704-38.192 0-63.096-8.144-69.68-13.16a30.68 30.68 0 0 0-28.976-20.528h-41.064c-73.456 0-124.336 61.712-135.288 131.808l-30.848 143.592-360.328 76.296C60.136 524.376 0 586.28 0 667.04v168.696a30.648 30.648 0 0 0 30.656 30.648h962.696a30.632 30.632 0 0 0 30.648-30.648V292.88c0-63.024-42.976-117.088-104.576-131.488z m43.28 643.696H61.304V667.04c0-59.56 52.528-89.256 103.144-97.456l21.984-4.672 35.704 52.68a30.56 30.56 0 0 0 25.4 13.408 30.64 30.64 0 0 0 25.336-47.824L251.216 551.2l65.776-13.928 39.24 57.928a30.624 30.624 0 0 0 42.568 8.208 30.64 30.64 0 0 0 8.168-42.56l-25.248-37.28 61.344-12.96c0.192 0.304 0.192 0.664 0.4 0.96l46.84 69.16a30.52 30.52 0 0 0 25.416 13.472 30.648 30.648 0 0 0 25.344-47.824l-33.496-49.432 38.12-8.056a30.624 30.624 0 0 0 23.584-23.552l35.68-166c0.48-2.112 22.712-81.984 74.712-80.392h24c28.856 30.856 93.392 33.688 115.72 33.688 24.488 0 74.472-2.984 103.144-25.296a73.416 73.416 0 0 1 40.168 65.568v512.184z" fill="#838384" p-id="14766"></path></svg>