<svg t="1709531618576" class="icon" viewBox="0 0 1357 1024" version="1.1" xmlns="http://www.w3.org/2000/svg" p-id="29832" width="16" height="16"><path d="M1246.252522 209.408h-125.707131V111.437913A100.307478 100.307478 0 0 0 1020.215652 11.130435H337.474783a100.307478 100.307478 0 0 0-100.307479 100.307478v97.947826H111.437913A100.307478 100.307478 0 0 0 11.130435 309.737739V851.033043a100.307478 100.307478 0 0 0 100.307478 100.307479h73.906087c-0.200348 1.78087-0.200348 3.561739 0 5.342608v21.74887a33.435826 33.435826 0 1 0 66.849391 0v-21.726609c0.200348-1.78087 0.200348-3.561739 0-5.342608h852.635826c-0.200348 1.78087-0.200348 3.561739 0 5.342608v21.726609a33.435826 33.435826 0 1 0 66.871653 0v-21.726609c0.178087-1.78087 0.178087-3.561739 0-5.342608h76.889043a100.307478 100.307478 0 0 0 100.307478-100.32974V309.715478a100.329739 100.329739 0 0 0-102.622608-100.307478z m-192.578783-97.970087v434.665739H710.945391V78.002087h309.292522c18.476522 0 33.435826 14.959304 33.435826 33.435826z m-749.634782 0c0-18.476522 14.959304-33.435826 33.435826-33.435826h306.598956v468.101565H304.038957V111.437913zM1279.688348 851.033043c0 18.476522-14.959304 33.435826-33.435826 33.435827H111.437913c-18.476522 0-33.435826-14.959304-33.435826-33.435827V309.715478c0-18.476522 14.959304-33.435826 33.435826-33.435826h125.729391v272.161391H190.018783a33.435826 33.435826 0 0 0 0 66.871653h980.346434a33.435826 33.435826 0 0 0 0-66.871653h-49.819826V276.279652h125.707131c18.476522 0 33.435826 14.959304 33.435826 33.435826V851.033043z" fill="#666666" p-id="29833"></path></svg>